# xmcd
#
# Track frame offsets:
#	150
#	12738
#	27193
#	42863
#	61235
#	73257
#	88302
#	106619
#	124501
#	142316
#	162026
#
# Disc length: 2390 seconds
#
# Revision: 1
# Processed by: cddbd v1.5.2PL0 Copyright (c) Steve Scherf et al.
# Submitted via: audiograbber 1.83.01
#
DISCID=9609540b
DTITLE=Roy Buchanan - A street Called Straight
DYEAR=1900
DGENRE=
TTITLE0=Running Out
TTITLE1=Keep What You Got
TTITLE2=Man on the Floor
TTITLE3=Good God Have Mercy
TTITLE4=Okay
TTITLE5=Caruso
TTITLE6=My Friend Jeff
TTITLE7=If Six Was Nine
TTITLE8=Guitar Cadenza
TTITLE9=The Messiah Will Come Again
TTITLE10=I Still Think About Ida Mae
EXTD=
EXTT0=
EXTT1=
EXTT2=
EXTT3=
EXTT4=
EXTT5=
EXTT6=
EXTT7=
EXTT8=
EXTT9=
EXTT10=
PLAYORDER=
